<svg width="218" height="86" viewBox="0 0 218 86" fill="none" xmlns="http://www.w3.org/2000/svg">
<rect x="1" y="1" width="211" height="84" rx="9" fill="#DDDCD9" stroke="black" stroke-width="2"/>
<circle cx="44" cy="41" r="20.5" fill="#E8D33F" stroke="black" stroke-width="5"/>
<rect x="7" y="64" width="89" height="17" rx="4" fill="#E8D33F" fill-opacity="0.5"/>
<path d="M15.9902 76V67.4688H18.3984C19.1406 67.4688 19.7969 67.6328 20.3672 67.9609C20.9375 68.2891 21.377 68.7559 21.6855 69.3613C21.998 69.9668 22.1562 70.6621 22.1602 71.4473V71.9922C22.1602 72.7969 22.0039 73.502 21.6914 74.1074C21.3828 74.7129 20.9395 75.1777 20.3613 75.502C19.7871 75.8262 19.1172 75.9922 18.3516 76H15.9902ZM17.1152 68.3945V75.0801H18.2988C19.166 75.0801 19.8398 74.8105 20.3203 74.2715C20.8047 73.7324 21.0469 72.9648 21.0469 71.9688V71.4707C21.0469 70.502 20.8184 69.75 20.3613 69.2148C19.9082 68.6758 19.2637 68.4023 18.4277 68.3945H17.1152ZM26.3262 76.1172C25.4668 76.1172 24.7676 75.8359 24.2285 75.2734C23.6895 74.707 23.4199 73.9512 23.4199 73.0059V72.8066C23.4199 72.1777 23.5391 71.6172 23.7773 71.125C24.0195 70.6289 24.3555 70.2422 24.7852 69.9648C25.2188 69.6836 25.6875 69.543 26.1914 69.543C27.0156 69.543 27.6562 69.8145 28.1133 70.3574C28.5703 70.9004 28.7988 71.6777 28.7988 72.6895V73.1406H24.5039C24.5195 73.7656 24.7012 74.2715 25.0488 74.6582C25.4004 75.041 25.8457 75.2324 26.3848 75.2324C26.7676 75.2324 27.0918 75.1543 27.3574 74.998C27.623 74.8418 27.8555 74.6348 28.0547 74.377L28.7168 74.8926C28.1855 75.709 27.3887 76.1172 26.3262 76.1172ZM26.1914 70.4336C25.7539 70.4336 25.3867 70.5938 25.0898 70.9141C24.793 71.2305 24.6094 71.6758 24.5391 72.25H27.7148V72.168C27.6836 71.6172 27.5352 71.1914 27.2695 70.8906C27.0039 70.5859 26.6445 70.4336 26.1914 70.4336ZM32.0684 74.5293L33.6387 69.6602H34.7461L32.4727 76H31.6465L29.3496 69.6602H30.457L32.0684 74.5293ZM38.3379 76.1172C37.4785 76.1172 36.7793 75.8359 36.2402 75.2734C35.7012 74.707 35.4316 73.9512 35.4316 73.0059V72.8066C35.4316 72.1777 35.5508 71.6172 35.7891 71.125C36.0312 70.6289 36.3672 70.2422 36.7969 69.9648C37.2305 69.6836 37.6992 69.543 38.2031 69.543C39.0273 69.543 39.668 69.8145 40.125 70.3574C40.582 70.9004 40.8105 71.6777 40.8105 72.6895V73.1406H36.5156C36.5312 73.7656 36.7129 74.2715 37.0605 74.6582C37.4121 75.041 37.8574 75.2324 38.3965 75.2324C38.7793 75.2324 39.1035 75.1543 39.3691 74.998C39.6348 74.8418 39.8672 74.6348 40.0664 74.377L40.7285 74.8926C40.1973 75.709 39.4004 76.1172 38.3379 76.1172ZM38.2031 70.4336C37.7656 70.4336 37.3984 70.5938 37.1016 70.9141C36.8047 71.2305 36.6211 71.6758 36.5508 72.25H39.7266V72.168C39.6953 71.6172 39.5469 71.1914 39.2812 70.8906C39.0156 70.5859 38.6562 70.4336 38.2031 70.4336ZM43.248 76H42.1641V67H43.248V76ZM44.7012 72.7715C44.7012 72.1504 44.8223 71.5918 45.0645 71.0957C45.3105 70.5996 45.6504 70.2168 46.084 69.9473C46.5215 69.6777 47.0195 69.543 47.5781 69.543C48.4414 69.543 49.1387 69.8418 49.6699 70.4395C50.2051 71.0371 50.4727 71.832 50.4727 72.8242V72.9004C50.4727 73.5176 50.3535 74.0723 50.1152 74.5645C49.8809 75.0527 49.543 75.4336 49.1016 75.707C48.6641 75.9805 48.1602 76.1172 47.5898 76.1172C46.7305 76.1172 46.0332 75.8184 45.498 75.2207C44.9668 74.623 44.7012 73.832 44.7012 72.8477V72.7715ZM45.791 72.9004C45.791 73.6035 45.9531 74.168 46.2773 74.5938C46.6055 75.0195 47.043 75.2324 47.5898 75.2324C48.1406 75.2324 48.5781 75.0176 48.9023 74.5879C49.2266 74.1543 49.3887 73.5488 49.3887 72.7715C49.3887 72.0762 49.2227 71.5137 48.8906 71.084C48.5625 70.6504 48.125 70.4336 47.5781 70.4336C47.043 70.4336 46.6113 70.6465 46.2832 71.0723C45.9551 71.498 45.791 72.1074 45.791 72.9004ZM57.1875 72.9004C57.1875 73.8652 56.9668 74.6426 56.5254 75.2324C56.084 75.8223 55.4863 76.1172 54.7324 76.1172C53.9629 76.1172 53.3574 75.873 52.916 75.3848V78.4375H51.832V69.6602H52.8223L52.875 70.3633C53.3164 69.8164 53.9297 69.543 54.7148 69.543C55.4766 69.543 56.0781 69.8301 56.5195 70.4043C56.9648 70.9785 57.1875 71.7773 57.1875 72.8008V72.9004ZM56.1035 72.7773C56.1035 72.0625 55.9512 71.498 55.6465 71.084C55.3418 70.6699 54.9238 70.4629 54.3926 70.4629C53.7363 70.4629 53.2441 70.7539 52.916 71.3359V74.3652C53.2402 74.9434 53.7363 75.2324 54.4043 75.2324C54.9238 75.2324 55.3359 75.0273 55.6406 74.6172C55.9492 74.2031 56.1035 73.5898 56.1035 72.7773ZM59.5898 69.6602L59.6191 70.3633C60.084 69.8164 60.7109 69.543 61.5 69.543C62.3867 69.543 62.9902 69.8828 63.3105 70.5625C63.5215 70.2578 63.7949 70.0117 64.1309 69.8242C64.4707 69.6367 64.8711 69.543 65.332 69.543C66.7227 69.543 67.4297 70.2793 67.4531 71.752V76H66.3691V71.8164C66.3691 71.3633 66.2656 71.0254 66.0586 70.8027C65.8516 70.5762 65.5039 70.4629 65.0156 70.4629C64.6133 70.4629 64.2793 70.584 64.0137 70.8262C63.748 71.0645 63.5938 71.3867 63.5508 71.793V76H62.4609V71.8457C62.4609 70.9238 62.0098 70.4629 61.1074 70.4629C60.3965 70.4629 59.9102 70.7656 59.6484 71.3711V76H58.5645V69.6602H59.5898ZM71.7246 76.1172C70.8652 76.1172 70.166 75.8359 69.627 75.2734C69.0879 74.707 68.8184 73.9512 68.8184 73.0059V72.8066C68.8184 72.1777 68.9375 71.6172 69.1758 71.125C69.418 70.6289 69.7539 70.2422 70.1836 69.9648C70.6172 69.6836 71.0859 69.543 71.5898 69.543C72.4141 69.543 73.0547 69.8145 73.5117 70.3574C73.9688 70.9004 74.1973 71.6777 74.1973 72.6895V73.1406H69.9023C69.918 73.7656 70.0996 74.2715 70.4473 74.6582C70.7988 75.041 71.2441 75.2324 71.7832 75.2324C72.166 75.2324 72.4902 75.1543 72.7559 74.998C73.0215 74.8418 73.2539 74.6348 73.4531 74.377L74.1152 74.8926C73.584 75.709 72.7871 76.1172 71.7246 76.1172ZM71.5898 70.4336C71.1523 70.4336 70.7852 70.5938 70.4883 70.9141C70.1914 71.2305 70.0078 71.6758 69.9375 72.25H73.1133V72.168C73.082 71.6172 72.9336 71.1914 72.668 70.8906C72.4023 70.5859 72.043 70.4336 71.5898 70.4336ZM76.4824 69.6602L76.5176 70.457C77.002 69.8477 77.6348 69.543 78.416 69.543C79.7559 69.543 80.4316 70.2988 80.4434 71.8105V76H79.3594V71.8047C79.3555 71.3477 79.25 71.0098 79.043 70.791C78.8398 70.5723 78.5215 70.4629 78.0879 70.4629C77.7363 70.4629 77.4277 70.5566 77.1621 70.7441C76.8965 70.9316 76.6895 71.1777 76.541 71.4824V76H75.457V69.6602H76.4824ZM83.5488 68.125V69.6602H84.7324V70.498H83.5488V74.4297C83.5488 74.6836 83.6016 74.875 83.707 75.0039C83.8125 75.1289 83.9922 75.1914 84.2461 75.1914C84.3711 75.1914 84.543 75.168 84.7617 75.1211V76C84.4766 76.0781 84.1992 76.1172 83.9297 76.1172C83.4453 76.1172 83.0801 75.9707 82.834 75.6777C82.5879 75.3848 82.4648 74.9688 82.4648 74.4297V70.498H81.3105V69.6602H82.4648V68.125H83.5488Z" fill="black"/>
<circle cx="161" cy="41" r="20.5" fill="#F34213" stroke="black" stroke-width="5"/>
<rect x="117" y="64" width="89" height="17" rx="4" fill="#F34213" fill-opacity="0.5"/>
<path d="M125.99 76V67.4688H128.398C129.141 67.4688 129.797 67.6328 130.367 67.9609C130.938 68.2891 131.377 68.7559 131.686 69.3613C131.998 69.9668 132.156 70.6621 132.16 71.4473V71.9922C132.16 72.7969 132.004 73.502 131.691 74.1074C131.383 74.7129 130.939 75.1777 130.361 75.502C129.787 75.8262 129.117 75.9922 128.352 76H125.99ZM127.115 68.3945V75.0801H128.299C129.166 75.0801 129.84 74.8105 130.32 74.2715C130.805 73.7324 131.047 72.9648 131.047 71.9688V71.4707C131.047 70.502 130.818 69.75 130.361 69.2148C129.908 68.6758 129.264 68.4023 128.428 68.3945H127.115ZM137.609 76C137.547 75.875 137.496 75.6523 137.457 75.332C136.953 75.8555 136.352 76.1172 135.652 76.1172C135.027 76.1172 134.514 75.9414 134.111 75.5898C133.713 75.2344 133.514 74.7852 133.514 74.2422C133.514 73.582 133.764 73.0703 134.264 72.707C134.768 72.3398 135.475 72.1562 136.385 72.1562H137.439V71.6582C137.439 71.2793 137.326 70.9785 137.1 70.7559C136.873 70.5293 136.539 70.416 136.098 70.416C135.711 70.416 135.387 70.5137 135.125 70.709C134.863 70.9043 134.732 71.1406 134.732 71.418H133.643C133.643 71.1016 133.754 70.7969 133.977 70.5039C134.203 70.207 134.508 69.9727 134.891 69.8008C135.277 69.6289 135.701 69.543 136.162 69.543C136.893 69.543 137.465 69.7266 137.879 70.0938C138.293 70.457 138.508 70.959 138.523 71.5996V74.5176C138.523 75.0996 138.598 75.5625 138.746 75.9062V76H137.609ZM135.811 75.1738C136.15 75.1738 136.473 75.0859 136.777 74.9102C137.082 74.7344 137.303 74.5059 137.439 74.2246V72.9238H136.59C135.262 72.9238 134.598 73.3125 134.598 74.0898C134.598 74.4297 134.711 74.6953 134.938 74.8867C135.164 75.0781 135.455 75.1738 135.811 75.1738ZM141.693 68.125V69.6602H142.877V70.498H141.693V74.4297C141.693 74.6836 141.746 74.875 141.852 75.0039C141.957 75.1289 142.137 75.1914 142.391 75.1914C142.516 75.1914 142.688 75.168 142.906 75.1211V76C142.621 76.0781 142.344 76.1172 142.074 76.1172C141.59 76.1172 141.225 75.9707 140.979 75.6777C140.732 75.3848 140.609 74.9688 140.609 74.4297V70.498H139.455V69.6602H140.609V68.125H141.693ZM148.062 76C148 75.875 147.949 75.6523 147.91 75.332C147.406 75.8555 146.805 76.1172 146.105 76.1172C145.48 76.1172 144.967 75.9414 144.564 75.5898C144.166 75.2344 143.967 74.7852 143.967 74.2422C143.967 73.582 144.217 73.0703 144.717 72.707C145.221 72.3398 145.928 72.1562 146.838 72.1562H147.893V71.6582C147.893 71.2793 147.779 70.9785 147.553 70.7559C147.326 70.5293 146.992 70.416 146.551 70.416C146.164 70.416 145.84 70.5137 145.578 70.709C145.316 70.9043 145.186 71.1406 145.186 71.418H144.096C144.096 71.1016 144.207 70.7969 144.43 70.5039C144.656 70.207 144.961 69.9727 145.344 69.8008C145.73 69.6289 146.154 69.543 146.615 69.543C147.346 69.543 147.918 69.7266 148.332 70.0938C148.746 70.457 148.961 70.959 148.977 71.5996V74.5176C148.977 75.0996 149.051 75.5625 149.199 75.9062V76H148.062ZM146.264 75.1738C146.604 75.1738 146.926 75.0859 147.23 74.9102C147.535 74.7344 147.756 74.5059 147.893 74.2246V72.9238H147.043C145.715 72.9238 145.051 73.3125 145.051 74.0898C145.051 74.4297 145.164 74.6953 145.391 74.8867C145.617 75.0781 145.908 75.1738 146.264 75.1738ZM156.336 72.1973C155.371 71.9199 154.668 71.5801 154.227 71.1777C153.789 70.7715 153.57 70.2715 153.57 69.6777C153.57 69.0059 153.838 68.4512 154.373 68.0137C154.912 67.5723 155.611 67.3516 156.471 67.3516C157.057 67.3516 157.578 67.4648 158.035 67.6914C158.496 67.918 158.852 68.2305 159.102 68.6289C159.355 69.0273 159.482 69.4629 159.482 69.9355H158.352C158.352 69.4199 158.188 69.0156 157.859 68.7227C157.531 68.4258 157.068 68.2773 156.471 68.2773C155.916 68.2773 155.482 68.4004 155.17 68.6465C154.861 68.8887 154.707 69.2266 154.707 69.6602C154.707 70.0078 154.854 70.3027 155.146 70.5449C155.443 70.7832 155.945 71.002 156.652 71.2012C157.363 71.4004 157.918 71.6211 158.316 71.8633C158.719 72.1016 159.016 72.3809 159.207 72.7012C159.402 73.0215 159.5 73.3984 159.5 73.832C159.5 74.5234 159.23 75.0781 158.691 75.4961C158.152 75.9102 157.432 76.1172 156.529 76.1172C155.943 76.1172 155.396 76.0059 154.889 75.7832C154.381 75.5566 153.988 75.248 153.711 74.8574C153.438 74.4668 153.301 74.0234 153.301 73.5273H154.432C154.432 74.043 154.621 74.4512 155 74.752C155.383 75.0488 155.893 75.1973 156.529 75.1973C157.123 75.1973 157.578 75.0762 157.895 74.834C158.211 74.5918 158.369 74.2617 158.369 73.8438C158.369 73.4258 158.223 73.1035 157.93 72.877C157.637 72.6465 157.105 72.4199 156.336 72.1973ZM163.32 75.2324C163.707 75.2324 164.045 75.1152 164.334 74.8809C164.623 74.6465 164.783 74.3535 164.814 74.002H165.84C165.82 74.3652 165.695 74.7109 165.465 75.0391C165.234 75.3672 164.926 75.6289 164.539 75.8242C164.156 76.0195 163.75 76.1172 163.32 76.1172C162.457 76.1172 161.77 75.8301 161.258 75.2559C160.75 74.6777 160.496 73.8887 160.496 72.8887V72.707C160.496 72.0898 160.609 71.541 160.836 71.0605C161.062 70.5801 161.387 70.207 161.809 69.9414C162.234 69.6758 162.736 69.543 163.314 69.543C164.025 69.543 164.615 69.7559 165.084 70.1816C165.557 70.6074 165.809 71.1602 165.84 71.8398H164.814C164.783 71.4297 164.627 71.0938 164.346 70.832C164.068 70.5664 163.725 70.4336 163.314 70.4336C162.764 70.4336 162.336 70.6328 162.031 71.0312C161.73 71.4258 161.58 71.998 161.58 72.748V72.9531C161.58 73.6836 161.73 74.2461 162.031 74.6406C162.332 75.0352 162.762 75.2324 163.32 75.2324ZM168.236 76H167.152V69.6602H168.236V76ZM167.064 67.9785C167.064 67.8027 167.117 67.6543 167.223 67.5332C167.332 67.4121 167.492 67.3516 167.703 67.3516C167.914 67.3516 168.074 67.4121 168.184 67.5332C168.293 67.6543 168.348 67.8027 168.348 67.9785C168.348 68.1543 168.293 68.3008 168.184 68.418C168.074 68.5352 167.914 68.5938 167.703 68.5938C167.492 68.5938 167.332 68.5352 167.223 68.418C167.117 68.3008 167.064 68.1543 167.064 67.9785ZM172.607 76.1172C171.748 76.1172 171.049 75.8359 170.51 75.2734C169.971 74.707 169.701 73.9512 169.701 73.0059V72.8066C169.701 72.1777 169.82 71.6172 170.059 71.125C170.301 70.6289 170.637 70.2422 171.066 69.9648C171.5 69.6836 171.969 69.543 172.473 69.543C173.297 69.543 173.938 69.8145 174.395 70.3574C174.852 70.9004 175.08 71.6777 175.08 72.6895V73.1406H170.785C170.801 73.7656 170.982 74.2715 171.33 74.6582C171.682 75.041 172.127 75.2324 172.666 75.2324C173.049 75.2324 173.373 75.1543 173.639 74.998C173.904 74.8418 174.137 74.6348 174.336 74.377L174.998 74.8926C174.467 75.709 173.67 76.1172 172.607 76.1172ZM172.473 70.4336C172.035 70.4336 171.668 70.5938 171.371 70.9141C171.074 71.2305 170.891 71.6758 170.82 72.25H173.996V72.168C173.965 71.6172 173.816 71.1914 173.551 70.8906C173.285 70.5859 172.926 70.4336 172.473 70.4336ZM177.365 69.6602L177.4 70.457C177.885 69.8477 178.518 69.543 179.299 69.543C180.639 69.543 181.314 70.2988 181.326 71.8105V76H180.242V71.8047C180.238 71.3477 180.133 71.0098 179.926 70.791C179.723 70.5723 179.404 70.4629 178.971 70.4629C178.619 70.4629 178.311 70.5566 178.045 70.7441C177.779 70.9316 177.572 71.1777 177.424 71.4824V76H176.34V69.6602H177.365ZM185.504 75.2324C185.891 75.2324 186.229 75.1152 186.518 74.8809C186.807 74.6465 186.967 74.3535 186.998 74.002H188.023C188.004 74.3652 187.879 74.7109 187.648 75.0391C187.418 75.3672 187.109 75.6289 186.723 75.8242C186.34 76.0195 185.934 76.1172 185.504 76.1172C184.641 76.1172 183.953 75.8301 183.441 75.2559C182.934 74.6777 182.68 73.8887 182.68 72.8887V72.707C182.68 72.0898 182.793 71.541 183.02 71.0605C183.246 70.5801 183.57 70.207 183.992 69.9414C184.418 69.6758 184.92 69.543 185.498 69.543C186.209 69.543 186.799 69.7559 187.268 70.1816C187.74 70.6074 187.992 71.1602 188.023 71.8398H186.998C186.967 71.4297 186.811 71.0938 186.529 70.832C186.252 70.5664 185.908 70.4336 185.498 70.4336C184.947 70.4336 184.52 70.6328 184.215 71.0312C183.914 71.4258 183.764 71.998 183.764 72.748V72.9531C183.764 73.6836 183.914 74.2461 184.215 74.6406C184.516 75.0352 184.945 75.2324 185.504 75.2324ZM191.873 76.1172C191.014 76.1172 190.314 75.8359 189.775 75.2734C189.236 74.707 188.967 73.9512 188.967 73.0059V72.8066C188.967 72.1777 189.086 71.6172 189.324 71.125C189.566 70.6289 189.902 70.2422 190.332 69.9648C190.766 69.6836 191.234 69.543 191.738 69.543C192.562 69.543 193.203 69.8145 193.66 70.3574C194.117 70.9004 194.346 71.6777 194.346 72.6895V73.1406H190.051C190.066 73.7656 190.248 74.2715 190.596 74.6582C190.947 75.041 191.393 75.2324 191.932 75.2324C192.314 75.2324 192.639 75.1543 192.904 74.998C193.17 74.8418 193.402 74.6348 193.602 74.377L194.264 74.8926C193.732 75.709 192.936 76.1172 191.873 76.1172ZM191.738 70.4336C191.301 70.4336 190.934 70.5938 190.637 70.9141C190.34 71.2305 190.156 71.6758 190.086 72.25H193.262V72.168C193.23 71.6172 193.082 71.1914 192.816 70.8906C192.551 70.5859 192.191 70.4336 191.738 70.4336Z" fill="black"/>
</svg>
